<?xml version="1.0" encoding="utf-8"?>
<!-- Generator: Adobe Illustrator 24.2.1, SVG Export Plug-In . SVG Version: 6.00 Build 0)  -->
<svg version="1.1" id="Layer_1" xmlns="http://www.w3.org/2000/svg" xmlns:xlink="http://www.w3.org/1999/xlink" x="0px" y="0px"
	 viewBox="0 0 453.8 327.3" style="enable-background:new 0 0 453.8 327.3;" xml:space="preserve">
<style type="text/css">
	.st0{fill:#F8A9BE;}
	.st1{fill:#FFFFFF;}
	.st2{fill:#A377FF;}
	.st3{fill:#E7BCFF;}
	.st4{fill:#DF2C5E;}
	.st5{fill:none;stroke:#A377FF;stroke-width:6.6719;stroke-miterlimit:10;}
	.st6{fill:none;stroke:#FF4F80;stroke-width:6.6719;stroke-miterlimit:10;}
	.st7{fill:none;stroke:#4C1DAE;stroke-width:6.6719;stroke-miterlimit:10;}
	.st8{fill:#FF4F80;}
	.st9{fill:#4C1DAE;}
	.st10{fill:#424242;}
	.st11{fill:none;stroke:#4C1DAE;stroke-width:4.6303;stroke-linecap:round;stroke-miterlimit:10;}
	.st12{fill:none;stroke:#FF4F80;stroke-width:4.2438;stroke-linecap:round;stroke-miterlimit:10;}
	.st13{fill:none;stroke:#F8A9BE;stroke-width:4.2438;stroke-linecap:round;stroke-miterlimit:10;}
	.st14{fill:none;stroke:#4C1DAE;stroke-width:4.2438;stroke-linecap:round;stroke-miterlimit:10;}
</style>
<g>
	<path class="st0" d="M99.3,113.7c-50.2,20.3-52.4,51.8-54.6,99.1s4.5,98,75.5,106.5c38.4,4.6,120.5-11.8,161.1-8.4
		s64.7,12.2,111.8-0.6c49.8-13.5,71-57.4,49.8-110.7c-19-47.8,1-70-25.3-112.4C386.2,36.8,260,10.6,197.6,86.3
		C176.2,112.3,122.9,104.1,99.3,113.7z"/>
	<g>
		<path class="st1" d="M322,327.3H201c-13.9,0-25.2-11.3-25.2-25.2V144H322V327.3z"/>
		<path class="st2" d="M200.9,289.3c0,0-8.7-0.7-11.7,6.2c-4.5,10.5,2.7,16.2,2.7,16.2l40.6-1.1v-21.4L200.9,289.3z"/>
		<path class="st3" d="M321.3,327.3H200.9c0,0,12.2-2,12.7-18.9c0.6-18.5-12.7-19.1-12.7-19.1h120.4c10.5,0,19,8.5,19,19v0
			C340.2,318.8,331.7,327.3,321.3,327.3z"/>
		<rect x="201.2" y="166.8" class="st4" width="94.6" height="7.9"/>
		<rect x="201.2" y="184.8" class="st4" width="94.6" height="7.9"/>
		<rect x="201.2" y="202.8" class="st4" width="94.6" height="7.9"/>
		<rect x="201.2" y="220.8" class="st4" width="94.6" height="7.9"/>
		<rect x="201.2" y="238.9" class="st4" width="94.6" height="7.9"/>
		<rect x="201.2" y="256.9" class="st4" width="94.6" height="7.9"/>
	</g>
	<g>
		<circle class="st4" cx="98" cy="213.1" r="22.5"/>
		<ellipse class="st5" cx="97.2" cy="215.5" rx="53.7" ry="99.6"/>
		<ellipse transform="matrix(0.866 -0.5 0.5 0.866 -94.7374 77.4802)" class="st6" cx="97.2" cy="215.5" rx="99.6" ry="53.7"/>
		
			<ellipse transform="matrix(0.3979 -0.9174 0.9174 0.3979 -139.1957 218.9527)" class="st7" cx="97.2" cy="215.5" rx="53.7" ry="99.6"/>
		<circle class="st8" cx="38.6" cy="243.7" r="10.9"/>
		<circle class="st9" cx="100.1" cy="314.8" r="10.9"/>
		<circle class="st10" cx="181.7" cy="163.4" r="10.9"/>
	</g>
	<g>
		<g>
			<line class="st11" x1="206.5" y1="73.8" x2="187.3" y2="38"/>
			<path class="st4" d="M206.5,73.8c0,0,8.3-17.3,32.9-8.3c23.5,8.6,5.9,65.3-11.6,71.3c-13.6,4.6-24-0.3-24-0.3s-7.2,6.5-21.9,0.5
				c-16.3-6.6-27.2-48.9-15.2-64.3C181.9,53.2,206.5,73.8,206.5,73.8z"/>
			<path class="st2" d="M202.7,16.1c-10.2,13.7-6.8,33.6-6.8,33.6s20-2.4,30.2-16.1S233,0,233,0S213,2.4,202.7,16.1z"/>
		</g>
		
			<ellipse transform="matrix(0.8903 -0.4553 0.4553 0.8903 -11.0969 115.7457)" class="st1" cx="234.7" cy="80.9" rx="5.5" ry="9.3"/>
	</g>
	<g>
		<g>
			<g>
				<path class="st2" d="M391.5,46.7h-78.8v29.7h78.8c17.4,0,31.7,13.8,32.6,31h29.7C452.9,73.8,425.3,46.7,391.5,46.7z"/>
				<path class="st4" d="M391.5,141.6h-78.8v29.7h78.8c34.3,0,62.3-27.9,62.3-62.3c0-0.5,0-1.1,0-1.6h-29.7c0,0.5,0,1.1,0,1.6
					C424.1,126.9,409.5,141.6,391.5,141.6z"/>
			</g>
			<rect x="292.4" y="56.1" transform="matrix(-1.836970e-16 1 -1 -1.836970e-16 368.8084 -245.7276)" width="29.7" height="10.9"/>
			<rect x="292.4" y="151" transform="matrix(-1.836970e-16 1 -1 -1.836970e-16 463.6879 -150.8481)" width="29.7" height="10.9"/>
		</g>
		<polygon class="st1" points="393.6,96.1 346.2,96.1 360.7,113.5 320.2,119.7 376.8,121.8 360.7,102.3 		"/>
	</g>
	<g>
		<g>
			<rect x="370.8" y="308.4" width="25.5" height="12.4"/>
			<path class="st1" d="M421.8,220c0-21.2-17.2-38.4-38.4-38.4c-21.2,0-38.4,17.2-38.4,38.4c0,9.9,3.7,18.9,9.9,25.7
				c1.3,1.6,4.1,5.2,6.5,8.5c2.4,3.3,2.9,7.8,2.9,7.8s0,0,0,0v13.9h38.3l0.1-13.9c0,0,0.5-4.5,2.9-7.8c3.2-4.4,7.3-9.4,7.3-9.4l0,0
				C418.4,238.1,421.8,229.4,421.8,220z"/>
			<path class="st12" d="M367.5,218.8c0,0,5.6-3.4,16.1-3.4c9.6,0,16.7,3.1,16.7,3.1"/>
			<line class="st13" x1="375.4" y1="273.2" x2="365.8" y2="214.7"/>
			<line class="st13" x1="392.1" y1="273.2" x2="401.6" y2="214.7"/>
			<path class="st2" d="M383.8,314.7L383.8,314.7c-13.6,0-24.6-11-24.6-24.6v-19.2h49.2v19.2C408.4,303.7,397.4,314.7,383.8,314.7z"
				/>
			<line class="st14" x1="357.6" y1="288.8" x2="408.5" y2="276.4"/>
			<line class="st14" x1="359.9" y1="299" x2="409.7" y2="286.6"/>
			<line class="st14" x1="389.2" y1="302.3" x2="409.7" y2="296.7"/>
		</g>
		<g>
			<rect x="315.5" y="216.2" class="st8" width="18.6" height="5.1"/>
			
				<rect x="323.3" y="187.5" transform="matrix(0.8674 0.4976 -0.4976 0.8674 138.6614 -140.3271)" class="st8" width="18.6" height="5.1"/>
			
				<rect x="344.4" y="166.5" transform="matrix(0.5047 0.8633 -0.8633 0.5047 321.0511 -221.6107)" class="st8" width="18.6" height="5.1"/>
			
				<rect x="373.1" y="158.7" transform="matrix(8.203258e-03 1 -1 8.203258e-03 540.4711 -222.4314)" class="st8" width="18.6" height="5.1"/>
			
				<rect x="401.8" y="166.3" transform="matrix(-0.4905 0.8714 -0.8714 -0.4905 759.881 -106.6638)" class="st8" width="18.6" height="5.1"/>
			
				<rect x="423" y="187.1" transform="matrix(-0.8591 0.5118 -0.5118 -0.8591 900.7676 131.3738)" class="st8" width="18.6" height="5.1"/>
			
				<rect x="431" y="215.8" transform="matrix(-0.9999 1.640596e-02 -1.640596e-02 -0.9999 884.0972 429.3711)" class="st8" width="18.6" height="5.1"/>
		</g>
	</g>
</g>
</svg>
